<svg width="20" height="21" viewBox="0 0 20 21" fill="none" xmlns="http://www.w3.org/2000/svg">
<path d="M6.13218 7.4664L10.8196 4.95794C11.8997 4.37993 12.3067 3.03578 11.7287 1.95568C11.1507 0.87559 9.80654 0.468569 8.72645 1.04658L4.03902 3.55504C2.81288 4.21032 1.88904 5.31603 1.4622 6.63914L5.71016 7.92545C5.79489 7.72912 5.94365 7.56731 6.13218 7.4664Z" fill="#42C6B6"/>
<path d="M7.02863 9.14163C6.8546 9.23481 6.65588 9.27147 6.46006 9.2465C6.26425 9.22153 6.08108 9.13618 5.93601 9.00231C5.79094 8.86844 5.69118 8.6927 5.65059 8.49952C5.61 8.30634 5.63061 8.10531 5.70954 7.92438L1.46158 6.63807C1.12861 7.65975 1.10897 8.75771 1.40521 9.79065C1.70145 10.8236 2.3 11.7443 3.12385 12.4342C3.9477 13.1241 4.95916 13.5517 6.02806 13.662C7.09697 13.7723 8.17442 13.5602 9.12178 13.053L11.3047 11.8848L9.21154 7.97345L7.02863 9.14163Z" fill="#44A8FF"/>
<path d="M14.9051 17.147C16.1648 16.4729 17.1051 15.326 17.5191 13.9587C17.9332 12.5913 17.7871 11.1155 17.113 9.8558C16.4389 8.59616 15.292 7.65588 13.9246 7.24183C12.5573 6.82779 11.0814 6.97388 9.82178 7.64798L9.21086 7.97491L11.304 11.8863L11.9149 11.5593C12.1372 11.4404 12.3977 11.4146 12.639 11.4877C12.8803 11.5607 13.0827 11.7267 13.2016 11.949C13.3206 12.1713 13.3464 12.4317 13.2733 12.673C13.2002 12.9143 13.0343 13.1167 12.812 13.2356L12.2011 13.5626L14.2942 17.4739L14.9051 17.147Z" fill="#F39873"/>
<path d="M14.2941 17.4745L12.2009 13.5631L8.12442 15.7447C7.04432 16.3227 6.6373 17.6668 7.21531 18.7469C7.79332 19.827 9.13748 20.234 10.2176 19.656L14.2941 17.4745Z" fill="#C482E9"/>
</svg>
